<svg width="189" height="35" viewBox="0 0 189 35" fill="none" xmlns="http://www.w3.org/2000/svg">
<path fill-rule="evenodd" clip-rule="evenodd" d="M0.101562 23.1607L28.6016 0.983032V8.43272C28.6016 8.86358 28.3817 9.27676 27.9903 9.58139L5.32055 27.2221L0.101562 23.1607ZM8.82155 29.9463L28.6016 14.5541V22.0039C28.6016 22.4347 28.3817 22.8478 27.9903 23.1525L19.2597 29.9463L20.9778 31.2833L26.1969 35.3447H15.7587L14.0405 34.0076L8.82155 29.9463ZM188.809 23.1241L193.876 25.9255C191.497 28.3702 187.786 29.9427 183.616 29.9427C176.434 29.9427 170.613 25.2792 170.613 19.5264C170.613 13.7737 176.434 9.11024 183.616 9.11024C187.786 9.11024 191.497 10.6827 193.876 13.1274L188.809 15.9289C187.562 14.714 185.697 13.9404 183.616 13.9404C179.869 13.9404 176.82 16.4462 176.82 19.5264C176.82 22.6067 179.869 25.1126 183.616 25.1126C185.697 25.1126 187.562 24.339 188.809 23.1241ZM51.4425 17.5473H61.9255L59.9229 22.1305H51.4425V29.9426H45.3233V9.11033H65.6118L63.6093 13.6935H51.4425V17.5473ZM138.01 9.11033H157.898V13.6935H151.013V29.9426H144.894V13.6935H138.01V9.11033ZM160.541 29.9427H166.803V9.11033H160.541V29.9427ZM123.814 22.1119L126.912 14.5565L130.01 22.1119H123.814ZM123.011 9.11033L113.909 29.9426H120.602L121.93 26.6952H131.895L133.223 29.9426H139.916L130.813 9.11033H123.011ZM105.343 9.11033H111.462V29.9426H106.873L96.5466 18.6337V29.9426H90.4275V9.11033H95.0168L105.343 20.4193V9.11033ZM71.8795 22.1119L74.9775 14.5565L78.0754 22.1119H71.8795ZM71.0766 9.11033L61.9743 29.9426H68.6671L69.9949 26.6952H79.9601L81.2878 29.9426H87.9807L78.8785 9.11033H71.0766Z" fill="#262C27"/>
</svg>
